<svg width="22" height="20" viewBox="0 0 22 20" fill="none" xmlns="http://www.w3.org/2000/svg">
<path fill-rule="evenodd" clip-rule="evenodd" d="M9.61406 19.7466C9.91217 19.9105 10.2699 20 10.6276 20C10.9854 20 11.3281 19.9255 11.6113 19.7168C13.3106 18.7777 16.3812 17.7642 18.2891 17.5108L18.602 17.466C20.0777 17.2723 21.2403 15.9606 21.2403 14.47V3.0077C21.2403 2.14319 20.8975 1.35321 20.2714 0.7868C19.6603 0.235297 18.8256 -0.0627964 18.0505 0.0117311H17.9015C15.7104 0.205502 12.5505 1.2638 10.6724 2.44133L10.6127 2.48605L10.4637 2.39662C8.60049 1.23399 5.44051 0.190597 3.26431 0.0117311C2.39979 -0.0627964 1.59492 0.220392 0.968893 0.7868C0.357768 1.35321 0 2.17301 0 3.02262V14.4999C0 16.0053 1.16264 17.317 2.62338 17.4958L2.90659 17.5406C4.8294 17.794 7.88502 18.8075 9.61406 19.7466ZM2.48919 2.45621C2.62334 2.33696 2.80226 2.26243 3.01094 2.26243H3.08545C4.88901 2.41148 7.73593 3.35055 9.30101 4.33431L9.50949 4.45938V17.2181C7.57283 16.3599 4.99525 15.5799 3.20472 15.3346L2.92151 15.2899C2.57868 15.2451 2.25074 14.8725 2.25074 14.5147V3.03754C2.25074 2.81396 2.32523 2.60526 2.48919 2.45621ZM18.0059 15.3346C16.2024 15.5677 13.6114 16.3662 11.7453 17.2233V4.44472L11.8797 4.36411C13.4299 3.38035 16.2768 2.4264 18.0059 2.27735H18.1549C18.3934 2.26244 18.6021 2.32207 18.766 2.47113C18.9151 2.62018 19.0045 2.81393 19.0045 3.05242V14.5147C19.0045 14.8725 18.6766 15.2451 18.3337 15.2899L18.0059 15.3346Z" fill="white"/>
</svg>
