<svg width="24" height="24" viewBox="0 0 24 24" fill="none" xmlns="http://www.w3.org/2000/svg">
<g clip-path="url(#clip0_305_4709)">
<path fill-rule="evenodd" clip-rule="evenodd" d="M5.16363 12.0001C5.16363 11.238 5.29021 10.5073 5.51613 9.82198L1.56172 6.80225C0.791027 8.36705 0.356812 10.1302 0.356812 12.0001C0.356812 13.8684 0.790493 15.6305 1.56012 17.1942L5.51239 14.1686C5.28861 13.4865 5.16363 12.7585 5.16363 12.0001Z" fill="#FBBC05"/>
<path fill-rule="evenodd" clip-rule="evenodd" d="M12.1069 5.0666C13.7625 5.0666 15.258 5.65327 16.433 6.61327L19.8512 3.19993C17.7682 1.3866 15.0978 0.266602 12.1069 0.266602C7.46347 0.266602 3.47274 2.92207 1.56177 6.80207L5.51618 9.8218C6.42734 7.05594 9.02462 5.0666 12.1069 5.0666Z" fill="#EB4335"/>
<path fill-rule="evenodd" clip-rule="evenodd" d="M12.1069 18.9334C9.02462 18.9334 6.42734 16.9441 5.51618 14.1782L1.56177 17.1974C3.47274 21.078 7.46347 23.7334 12.1069 23.7334C14.9728 23.7334 17.7089 22.7158 19.7625 20.8092L16.0089 17.9073C14.9498 18.5745 13.6162 18.9334 12.1069 18.9334Z" fill="#34A853"/>
<path fill-rule="evenodd" clip-rule="evenodd" d="M23.3227 12C23.3227 11.3067 23.2159 10.56 23.0557 9.8667H12.1068V14.4H18.4091C18.094 15.9456 17.2362 17.1339 16.0089 17.9072L19.7625 20.8091C21.9197 18.807 23.3227 15.8246 23.3227 12Z" fill="#4285F4"/>
</g>
<defs>
<clipPath id="clip0_305_4709">
<rect width="24" height="24" fill="white"/>
</clipPath>
</defs>
</svg>
