<svg width="24" height="24" viewBox="0 0 24 24" fill="none" xmlns="http://www.w3.org/2000/svg">
<rect width="24" height="24" rx="7" fill="white" fill-opacity="0.3"/>
<rect x="0.5" y="0.5" width="23" height="23" rx="6.5" stroke="white" stroke-opacity="0.3"/>
<path d="M12.0003 14.605C14.3763 14.605 16.2963 12.673 16.2963 10.297C16.2963 7.921 14.3763 6.00098 12.0003 6.00098C9.62429 6.00098 7.70428 7.921 7.70428 10.297C7.70428 12.673 9.62429 14.605 12.0003 14.605Z" fill="#CC75C0"/>
<path d="M15.6 23.9999C17.064 23.9999 18.312 23.8559 19.368 23.5439C19.104 20.4239 15.9 17.9639 12 17.9639C8.10002 17.9639 4.89602 20.4239 4.63202 23.5439C5.68802 23.8559 6.93602 23.9999 8.40002 23.9999H15.6Z" fill="#CC75C0"/>
</svg>
