<svg width="24" height="24" viewBox="0 0 24 24" fill="none" xmlns="http://www.w3.org/2000/svg">
<path d="M12 11.9361C13.1754 11.9361 14.2334 11.4659 15.0027 10.6965C15.7721 9.92717 16.2422 8.85861 16.2422 7.69386C16.2422 6.51842 15.7721 5.46055 15.0027 4.69119C14.2334 3.92183 13.1754 3.45166 12 3.45166C10.8246 3.45166 9.76673 3.92183 8.99738 4.69119C8.22802 5.46055 7.75781 6.51842 7.75781 7.69386C7.75781 8.8693 8.22802 9.92717 8.99738 10.6965C9.76673 11.4552 10.8246 11.9361 12 11.9361ZM10.643 6.3261C10.9956 5.97346 11.4765 5.75975 12 5.75975C12.5343 5.75975 13.0152 5.97346 13.3571 6.3261C13.7097 6.67874 13.9235 7.15958 13.9235 7.68317C13.9235 8.20677 13.7097 8.6983 13.3571 9.04025C13.0045 9.39289 12.5236 9.6066 12 9.6066C11.4658 9.6066 10.9849 9.39289 10.643 9.04025C10.2903 8.68761 10.0766 8.20677 10.0766 7.68317C10.0766 7.15958 10.2903 6.67874 10.643 6.3261Z" fill="#FF7700"/>
<path d="M17.7062 13.6459L16.456 11.9468C16.3812 11.8507 16.2529 11.84 16.1568 11.9148C14.9813 12.9193 13.5388 13.5604 11.9893 13.5604C10.4399 13.5604 8.99737 12.9086 7.82193 11.9148C7.73647 11.84 7.59754 11.8507 7.52272 11.9468L6.28321 13.6459C6.21908 13.7314 6.24046 13.8489 6.31527 13.913C7.36246 14.7679 8.5806 15.3342 9.85222 15.6334L7.22352 20.2603C7.15944 20.3885 7.25558 20.5488 7.40521 20.5488H9.98043C10.0552 20.5488 10.1301 20.5061 10.1621 20.4313L12 16.328L13.838 20.4313C13.87 20.5061 13.9448 20.5488 14.0196 20.5488H16.5949C16.7444 20.5488 16.8406 20.3885 16.7658 20.2603L14.1372 15.6334C15.4087 15.3342 16.6162 14.7679 17.6634 13.913C17.7489 13.8489 17.7596 13.7314 17.7062 13.6459Z" fill="#FF7700"/>
</svg>
