<svg width="24" height="24" viewBox="0 0 24 24" fill="none" xmlns="http://www.w3.org/2000/svg">
<g clip-path="url(#clip0_305_4711)">
<path d="M23.8818 11.9401C23.882 11.223 23.8181 10.5073 23.6907 9.80163L21.12 11.6954C21.12 11.7766 21.12 11.8589 21.12 11.9342C21.1228 13.9888 20.4373 15.9852 19.1728 17.6048C17.9084 19.2243 16.1379 20.3736 14.1439 20.8693C12.1499 21.3649 10.0473 21.1784 8.17173 20.3394C6.29615 19.5004 4.75566 18.0573 3.79611 16.2405C2.83655 14.4236 2.51324 12.3377 2.87777 10.3156C3.24229 8.29354 4.27365 6.45183 5.80724 5.08443C7.34083 3.71702 9.28827 2.90273 11.3388 2.7715C13.3892 2.64028 15.4246 3.19968 17.12 4.36044L19.4424 2.6482C17.335 0.947607 14.7122 0.0138488 12.0042 0.000152833C9.29632 -0.0135431 6.66417 0.893637 4.53972 2.57283C2.41526 4.25202 0.924684 6.60348 0.312584 9.24134C-0.299515 11.8792 0.00322006 14.6468 1.17111 17.09C2.33901 19.5331 4.30269 21.5067 6.73992 22.6869C9.17716 23.8671 11.9432 24.1838 14.5841 23.585C17.225 22.9862 19.584 21.5075 21.2739 19.3916C22.9637 17.2756 23.8842 14.6481 23.8841 11.9401H23.8818Z" fill="#21A049"/>
<path d="M21.3899 4.64014C21.9576 5.3734 22.4384 6.16996 22.8227 7.01387L11.9415 15.033L7.39587 12.1828V8.75476L11.9415 11.6037L21.3899 4.64014Z" fill="#21A049"/>
</g>
<defs>
<clipPath id="clip0_305_4711">
<rect width="24" height="24" fill="white"/>
</clipPath>
</defs>
</svg>
