<svg width="57" height="56" viewBox="0 0 57 56" fill="none" xmlns="http://www.w3.org/2000/svg">
<path d="M56.5 16.2679V39.7318C56.5 47.5997 52.888 53.0036 46.532 55.0476C44.684 55.6916 42.556 55.9997 40.232 55.9997H16.768C14.444 55.9997 12.316 55.6916 10.468 55.0476C4.11199 53.0036 0.5 47.5997 0.5 39.7318V16.2679C0.5 6.07596 6.57599 0 16.768 0H40.232C50.424 0 56.5 6.07596 56.5 16.2679Z" fill="white" fill-opacity="0.3"/>
<path d="M46.3789 54.5716L46.3789 54.5715L46.3675 54.5754C44.584 55.197 42.5137 55.4997 40.232 55.4997H16.768C14.4863 55.4997 12.416 55.197 10.6325 54.5754L10.6326 54.5753L10.6211 54.5716C7.54426 53.5822 5.14922 51.7874 3.51868 49.2996C1.88539 46.8076 1 43.5902 1 39.7318V16.2679C1 11.2714 2.48743 7.34363 5.16555 4.66553C7.84367 1.98742 11.7714 0.5 16.768 0.5H40.232C45.2286 0.5 49.1563 1.98742 51.8344 4.66553C54.5126 7.34363 56 11.2714 56 16.2679V39.7318C56 43.5902 55.1146 46.8076 53.4813 49.2996C51.8508 51.7874 49.4557 53.5822 46.3789 54.5716Z" stroke="white" stroke-opacity="0.3" stroke-linejoin="round"/>
<path d="M46.5313 55.0479C44.6833 55.6919 42.5553 56 40.2313 56H16.7673C14.4433 56 12.3153 55.6919 10.4673 55.0479C11.4473 47.656 19.1753 41.916 28.4993 41.916C37.8233 41.916 45.5513 47.656 46.5313 55.0479Z" fill="white"/>
<path d="M38.5231 26.8238C38.5231 32.3678 34.0431 36.8756 28.4991 36.8756C22.9551 36.8756 18.4751 32.3678 18.4751 26.8238C18.4751 21.2798 22.9551 16.7998 28.4991 16.7998C34.0431 16.7998 38.5231 21.2798 38.5231 26.8238Z" fill="white"/>
</svg>
